# xmcd
#
# Track frame offsets:
#	182
#	18520
#	36977
#	49330
#	63345
#	75522
#	91442
#	105562
#	119870
#	136327
#
# Disc length: 1980 seconds
#
# Revision: 1
# Processed by: cddbd v1.5.2PL0 Copyright (c) Steve Scherf et al.
# Submitted via: audiograbber 1.83.01
#
DISCID=8807ba0a
DTITLE=Jenny White - Country Dreams
DYEAR=1994
DGENRE=Country
TTITLE0=Help me make it through the night
TTITLE1=Leaving on a jet plane
TTITLE2=Wayfaring stranger
TTITLE3=Gotta get away
TTITLE4=Your love
TTITLE5=I fall to pieces
TTITLE6=Almost persuaded
TTITLE7=Darkest hour is just before dawn
TTITLE8=Blanket on the ground
TTITLE9=Where does love go
EXTD=
EXTT0=
EXTT1=
EXTT2=
EXTT3=
EXTT4=
EXTT5=
EXTT6=
EXTT7=
EXTT8=
EXTT9=
PLAYORDER=
